<?xml version="1.0" standalone="no"?>
<!DOCTYPE svg PUBLIC "-//W3C//DTD SVG 20010904//EN"
 "http://www.w3.org/TR/2001/REC-SVG-20010904/DTD/svg10.dtd">
<svg version="1.0" xmlns="http://www.w3.org/2000/svg"
 width="16.000000pt" height="16.000000pt" viewBox="0 0 16.000000 16.000000"
 preserveAspectRatio="xMidYMid meet">

<g transform="translate(0.000000,16.000000) scale(0.100000,-0.100000)"
fill="#000000" stroke="none">
<path d="M43 153 c-22 -4 -23 -9 -21 -76 l2 -72 3 66 c4 62 5 67 25 61 14 -3
19 -1 14 6 -5 8 1 12 14 12 13 0 19 -4 14 -12 -5 -7 0 -9 14 -6 20 6 21 1 25
-61 l3 -66 2 71 2 72 -31 6 c-17 3 -34 5 -38 5 -3 -1 -16 -4 -28 -6z"/>
<path d="M70 95 c0 -8 4 -15 8 -15 5 0 9 7 9 15 0 8 -4 15 -9 15 -4 0 -8 -7
-8 -15z"/>
<path d="M68 63 c6 -2 18 -2 25 0 6 3 1 5 -13 5 -14 0 -19 -2 -12 -5z"/>
<path d="M68 43 c7 -3 16 -2 19 1 4 3 -2 6 -13 5 -11 0 -14 -3 -6 -6z"/>
<path d="M58 23 c12 -2 32 -2 45 0 12 2 2 4 -23 4 -25 0 -35 -2 -22 -4z"/>
</g>
</svg>
